<svg xmlns="http://www.w3.org/2000/svg" viewBox="0 0 64 64" width="64" height="64">
  <!-- Background with typography -->
  <defs>
    <linearGradient id="textGradient" x1="0%" y1="0%" x2="100%" y2="0%">
      <stop offset="0%" style="stop-color:#2C3E50;stop-opacity:0.2"/>
      <stop offset="100%" style="stop-color:#2C3E50;stop-opacity:0.05"/>
    </linearGradient>
  </defs>
  
  <!-- Subtle infocz in the background -->
  <text x="32" y="10" font-family="Arial" font-size="6" 
        text-anchor="middle" fill="#34495E" fill-opacity="0.1">
    infocz
  </text>
  
  <!-- More prominent GoParser typography -->
  <text x="32" y="62" font-family="Arial" font-weight="bold" font-size="8" 
        text-anchor="middle" fill="url(#textGradient)">
    GoParser
  </text>
  
  <!-- More complex and asymmetrical network of nodes -->
  <g stroke="#4A90E2" stroke-width="1.5">
    <!-- Asymmetrical outer nodes -->
    <circle cx="14" cy="20" r="4" fill="#4A90E2" fill-opacity="0.7"/>
    <circle cx="50" cy="12" r="4" fill="#4A90E2" fill-opacity="0.7"/>
    <circle cx="18" cy="46" r="4" fill="#4A90E2" fill-opacity="0.7"/>
    <circle cx="46" cy="52" r="4" fill="#4A90E2" fill-opacity="0.7"/>
    
    <!-- Central nodes with offset -->
    <circle cx="34" cy="30" r="5" fill="#5DADE2" fill-opacity="0.8"/>
    <circle cx="26" cy="22" r="3" fill="#4A90E2" fill-opacity="0.6"/>
    <circle cx="42" cy="38" r="3" fill="#4A90E2" fill-opacity="0.6"/>
  </g>
  
  <!-- Asymmetrical connection lines -->
  <g stroke="#4A90E2" stroke-width="1" stroke-opacity="0.5">
    <line x1="14" y1="20" x2="50" y2="12"/>
    <line x1="18" y1="46" x2="46" y2="52"/>
    <line x1="14" y1="20" x2="18" y2="46"/>
    <line x1="50" y1="12" x2="46" y2="52"/>
    
    <line x1="26" y1="22" x2="34" y2="30"/>
    <line x1="42" y1="38" x2="34" y2="30"/>
    <line x1="14" y1="20" x2="34" y2="30"/>
    <line x1="50" y1="12" x2="34" y2="30"/>
    <line x1="18" y1="46" x2="34" y2="30"/>
    <line x1="46" y1="52" x2="34" y2="30"/>
  </g>
  
  <!-- Stylized AI core with asymmetrical shape -->
  <path d="M34 32 Q36 30, 38 32 T42 34 Q40 36, 38 38 T34 36" 
        fill="none" stroke="#5DADE2" stroke-width="2" opacity="0.8"/>
</svg>